<svg width="48" height="48" viewBox="0 0 48 48" fill="none" xmlns="http://www.w3.org/2000/svg">
<g id="fluent-mdl2:contact-card">
<path id="Vector" d="M42 21H27V18H42V21ZM36 30H27V27H36V30ZM48 6V42H0V6H48ZM45 9H3V39H45V9ZM15 27C14.1719 27 13.3984 27.1562 12.6797 27.4688C11.9609 27.7812 11.3203 28.2109 10.7578 28.7578C10.1953 29.3047 9.76562 29.9375 9.46875 30.6562C9.17188 31.375 9.01562 32.1562 9 33H6C6 32.1875 6.10938 31.3984 6.32812 30.6328C6.54688 29.8672 6.85156 29.1406 7.24219 28.4531C7.63281 27.7656 8.11719 27.1406 8.69531 26.5781C9.27344 26.0156 9.92188 25.5312 10.6406 25.125C10.125 24.5781 9.72656 23.9453 9.44531 23.2266C9.16406 22.5078 9.01562 21.7656 9 21C9 20.1719 9.15625 19.3984 9.46875 18.6797C9.78125 17.9609 10.2109 17.3203 10.7578 16.7578C11.3047 16.1953 11.9375 15.7656 12.6562 15.4688C13.375 15.1719 14.1562 15.0156 15 15C15.8281 15 16.6016 15.1562 17.3203 15.4688C18.0391 15.7812 18.6797 16.2109 19.2422 16.7578C19.8047 17.3047 20.2344 17.9375 20.5312 18.6562C20.8281 19.375 20.9844 20.1562 21 21C21 21.7656 20.8594 22.5078 20.5781 23.2266C20.2969 23.9453 19.8906 24.5781 19.3594 25.125C20.0781 25.5312 20.7188 26.0156 21.2812 26.5781C21.8438 27.1406 22.3281 27.7578 22.7344 28.4297C23.1406 29.1016 23.4531 29.8281 23.6719 30.6094C23.8906 31.3906 24 32.1875 24 33H21C21 32.1719 20.8438 31.3984 20.5312 30.6797C20.2188 29.9609 19.7891 29.3203 19.2422 28.7578C18.6953 28.1953 18.0625 27.7656 17.3438 27.4688C16.625 27.1719 15.8438 27.0156 15 27ZM12 21C12 21.4219 12.0781 21.8125 12.2344 22.1719C12.3906 22.5312 12.6016 22.8438 12.8672 23.1094C13.1328 23.375 13.4531 23.5938 13.8281 23.7656C14.2031 23.9375 14.5938 24.0156 15 24C15.4219 24 15.8125 23.9219 16.1719 23.7656C16.5312 23.6094 16.8438 23.3984 17.1094 23.1328C17.375 22.8672 17.5938 22.5469 17.7656 22.1719C17.9375 21.7969 18.0156 21.4062 18 21C18 20.5781 17.9219 20.1875 17.7656 19.8281C17.6094 19.4688 17.3984 19.1562 17.1328 18.8906C16.8672 18.625 16.5469 18.4062 16.1719 18.2344C15.7969 18.0625 15.4062 17.9844 15 18C14.5781 18 14.1875 18.0781 13.8281 18.2344C13.4688 18.3906 13.1562 18.6016 12.8906 18.8672C12.625 19.1328 12.4062 19.4531 12.2344 19.8281C12.0625 20.2031 11.9844 20.5938 12 21Z" fill="#267CD1"/>
</g>
</svg>
