<svg width="27" height="27" viewBox="0 0 27 27" fill="none" xmlns="http://www.w3.org/2000/svg">
<g id="Frame">
<path id="Vector" d="M3.375 12.3755H6.75C7.34674 12.3755 7.91903 12.6125 8.34099 13.0345C8.76295 13.4565 9 14.0287 9 14.6255V18.0005C9 18.5972 8.76295 19.1695 8.34099 19.5915C7.91903 20.0134 7.34674 20.2505 6.75 20.2505H5.625C5.02826 20.2505 4.45597 20.0134 4.03401 19.5915C3.61205 19.1695 3.375 18.5972 3.375 18.0005V12.3755ZM3.375 12.3755C3.375 11.0459 3.63689 9.72924 4.14572 8.50082C4.65455 7.2724 5.40035 6.15622 6.34054 5.21603C7.28074 4.27584 8.39691 3.53004 9.62533 3.02121C10.8538 2.51238 12.1704 2.25049 13.5 2.25049C14.8296 2.25049 16.1462 2.51238 17.3747 3.02121C18.6031 3.53004 19.7193 4.27584 20.6595 5.21603C21.5996 6.15622 22.3455 7.2724 22.8543 8.50082C23.3631 9.72924 23.625 11.0459 23.625 12.3755M23.625 12.3755V18.0005C23.625 18.5972 23.3879 19.1695 22.966 19.5915C22.544 20.0134 21.9717 20.2505 21.375 20.2505H20.25C19.6533 20.2505 19.081 20.0134 18.659 19.5915C18.2371 19.1695 18 18.5972 18 18.0005V14.6255C18 14.0287 18.2371 13.4565 18.659 13.0345C19.081 12.6125 19.6533 12.3755 20.25 12.3755H23.625Z" stroke="#267CD1" stroke-width="3.39" stroke-linecap="round" stroke-linejoin="round"/>
<path id="Vector_2" d="M23.625 17.9995V20.2495C23.625 21.443 23.1509 22.5876 22.307 23.4315C21.4631 24.2754 20.3185 24.7495 19.125 24.7495H13.5" stroke="#267CD1" stroke-width="3" stroke-linecap="round" stroke-linejoin="round"/>
</g>
</svg>
