<svg width="33" height="31" viewBox="0 0 33 31" fill="none" xmlns="http://www.w3.org/2000/svg">
<g id="Group">
<path id="Vector" d="M17 16.9999V8.9999C17 8.57556 17.1686 8.16859 17.4686 7.86853C17.7687 7.56847 18.1757 7.3999 18.6 7.3999H28.2C28.6243 7.3999 29.0313 7.56847 29.3314 7.86853C29.6314 8.16859 29.8 8.57556 29.8 8.9999V12.1999" stroke="black" stroke-width="2" stroke-linecap="round" stroke-linejoin="round"/>
<path id="Vector_2" d="M25 7.4V2.6C25 2.17565 24.8314 1.76869 24.5314 1.46863C24.2313 1.16857 23.8243 1 23.4 1H2.6C2.17565 1 1.76869 1.16857 1.46863 1.46863C1.16857 1.76869 1 2.17565 1 2.6V21.8C1 22.2243 1.16857 22.6313 1.46863 22.9314C1.76869 23.2314 2.17565 23.4 2.6 23.4H15.4M26.6 23.4V23.416M21.8 9H25M29.9936 26.7936C30.665 26.1224 31.1223 25.2671 31.3077 24.3359C31.493 23.4048 31.398 22.4396 31.0348 21.5624C30.6715 20.6853 30.0563 19.9355 29.2669 19.408C28.4775 18.8805 27.5494 18.599 26.6 18.599C25.6506 18.599 24.7225 18.8805 23.9331 19.408C23.1437 19.9355 22.5285 20.6853 22.1652 21.5624C21.802 22.4396 21.707 23.4048 21.8923 24.3359C22.0777 25.2671 22.535 26.1224 23.2064 26.7936C23.8752 27.4635 25.0064 28.4656 26.6 29.8C28.2821 28.376 29.4133 27.3739 29.9936 26.7936Z" stroke="black" stroke-width="2" stroke-linecap="round" stroke-linejoin="round"/>
</g>
</svg>
