<svg width="27" height="27" viewBox="0 0 27 27" fill="none" xmlns="http://www.w3.org/2000/svg">
<g id="Group">
<path id="Vector" fill-rule="evenodd" clip-rule="evenodd" d="M18.1252 9.66683C18.1252 10.9487 17.6159 12.1781 16.7095 13.0845C15.8031 13.9909 14.5737 14.5002 13.2918 14.5002C12.01 14.5002 10.7806 13.9909 9.87415 13.0845C8.96772 12.1781 8.4585 10.9487 8.4585 9.66683C8.4585 8.38495 8.96772 7.15557 9.87415 6.24915C10.7806 5.34272 12.01 4.8335 13.2918 4.8335C14.5737 4.8335 15.8031 5.34272 16.7095 6.24915C17.6159 7.15557 18.1252 8.38495 18.1252 9.66683ZM15.7085 9.66683C15.7085 10.3078 15.4539 10.9225 15.0007 11.3757C14.5475 11.8289 13.9328 12.0835 13.2918 12.0835C12.6509 12.0835 12.0362 11.8289 11.583 11.3757C11.1298 10.9225 10.8752 10.3078 10.8752 9.66683C10.8752 9.02589 11.1298 8.4112 11.583 7.95799C12.0362 7.50478 12.6509 7.25016 13.2918 7.25016C13.9328 7.25016 14.5475 7.50478 15.0007 7.95799C15.4539 8.4112 15.7085 9.02589 15.7085 9.66683Z" fill="#267CD1"/>
<path id="Vector_2" fill-rule="evenodd" clip-rule="evenodd" d="M13.2917 0C5.95104 0 0 5.95104 0 13.2917C0 20.6323 5.95104 26.5833 13.2917 26.5833C20.6323 26.5833 26.5833 20.6323 26.5833 13.2917C26.5833 5.95104 20.6323 0 13.2917 0ZM2.41667 13.2917C2.41667 15.8171 3.27821 18.1419 4.72217 19.9883C5.73649 18.6568 7.04477 17.5778 8.5449 16.8354C10.045 16.093 11.6964 15.7073 13.3702 15.7083C15.0225 15.7064 16.6533 16.0818 18.1385 16.806C19.6236 17.5301 20.9237 18.5838 21.9397 19.8868C22.9867 18.5136 23.6916 16.9109 23.9962 15.2112C24.3007 13.5115 24.1962 11.7638 23.6912 10.1125C23.1862 8.46128 22.2952 6.95402 21.092 5.71546C19.8889 4.47691 18.4081 3.54266 16.7721 2.99003C15.1362 2.4374 13.3922 2.28227 11.6844 2.53747C9.97663 2.79267 8.35417 3.45087 6.95126 4.45761C5.54836 5.46434 4.40536 6.79068 3.61682 8.32686C2.82828 9.86305 2.41689 11.5649 2.41667 13.2917ZM13.2917 24.1667C10.7951 24.1707 8.37392 23.3119 6.438 21.7355C7.21715 20.6197 8.25436 19.7088 9.46134 19.0801C10.6683 18.4515 12.0093 18.1238 13.3702 18.125C14.7141 18.1238 16.0389 18.4433 17.2344 19.057C18.43 19.6707 19.4619 20.5608 20.2444 21.6533C18.2935 23.281 15.8324 24.1706 13.2917 24.1667Z" fill="#267CD1"/>
</g>
</svg>
