<svg width="24" height="24" viewBox="0 0 24 24" fill="none" xmlns="http://www.w3.org/2000/svg">
<g id="ic:round-search">
<path id="Vector" d="M15.5 13.9995H14.71L14.43 13.7295C15.0549 13.0035 15.5117 12.1483 15.7675 11.2251C16.0234 10.3019 16.072 9.33364 15.91 8.38949C15.44 5.60949 13.12 3.38949 10.32 3.04949C9.33559 2.92495 8.33576 3.02726 7.397 3.34858C6.45824 3.66989 5.60542 4.20171 4.90381 4.90332C4.20219 5.60493 3.67038 6.45775 3.34906 7.39651C3.02775 8.33527 2.92544 9.3351 3.04997 10.3195C3.38997 13.1195 5.60998 15.4395 8.38998 15.9095C9.33413 16.0715 10.3024 16.0229 11.2256 15.767C12.1487 15.5112 13.0039 15.0544 13.73 14.4295L14 14.7095V15.4995L18.25 19.7495C18.66 20.1595 19.33 20.1595 19.74 19.7495C20.15 19.3395 20.15 18.6695 19.74 18.2595L15.5 13.9995ZM9.49997 13.9995C7.00997 13.9995 4.99997 11.9895 4.99997 9.49949C4.99997 7.00949 7.00997 4.99949 9.49997 4.99949C11.99 4.99949 14 7.00949 14 9.49949C14 11.9895 11.99 13.9995 9.49997 13.9995Z" fill="#878787"/>
</g>
</svg>
