<svg width="24" height="24" viewBox="0 0 24 24" fill="none" xmlns="http://www.w3.org/2000/svg">
<g id="iconamoon:search-light">
<path id="Vector" d="M21 20.9997L16.657 16.6567M16.657 16.6567C17.3999 15.9138 17.9892 15.0319 18.3912 14.0613C18.7933 13.0906 19.0002 12.0503 19.0002 10.9997C19.0002 9.94912 18.7933 8.9088 18.3912 7.93817C17.9892 6.96754 17.3999 6.08561 16.657 5.34272C15.9141 4.59983 15.0322 4.01054 14.0615 3.60849C13.0909 3.20644 12.0506 2.99951 11 2.99951C9.94939 2.99951 8.90908 3.20644 7.93845 3.60849C6.96782 4.01054 6.08588 4.59983 5.34299 5.34272C3.84266 6.84305 2.99979 8.87793 2.99979 10.9997C2.99979 13.1215 3.84266 15.1564 5.34299 16.6567C6.84332 18.157 8.87821 18.9999 11 18.9999C13.1218 18.9999 15.1567 18.157 16.657 16.6567Z" stroke="black" stroke-width="2.11765" stroke-linecap="round" stroke-linejoin="round"/>
</g>
</svg>
