<svg width="25" height="24" viewBox="0 0 25 24" fill="none" xmlns="http://www.w3.org/2000/svg">
<g id="lets-icons:gps-fixed">
<g id="Group">
<path id="Vector" d="M12.5 19C16.366 19 19.5 15.866 19.5 12C19.5 8.13401 16.366 5 12.5 5C8.63401 5 5.5 8.13401 5.5 12C5.5 15.866 8.63401 19 12.5 19Z" stroke="#FDFEFF" stroke-width="2"/>
<path id="Vector_2" d="M12.5 14C13.6046 14 14.5 13.1046 14.5 12C14.5 10.8954 13.6046 10 12.5 10C11.3954 10 10.5 10.8954 10.5 12C10.5 13.1046 11.3954 14 12.5 14Z" fill="#FDFEFF" stroke="#FDFEFF" stroke-width="2"/>
<path id="Vector_3" d="M12.5 5V3M19.5 12H21.5M12.5 21V19M3.5 12H5.5" stroke="#FDFEFF" stroke-width="2" stroke-linecap="round"/>
</g>
</g>
</svg>
