<svg width="24" height="32" viewBox="0 0 24 32" fill="none" xmlns="http://www.w3.org/2000/svg">
<g id="logos:google-maps" clip-path="url(#clip0_535_775)">
<path id="Vector" d="M6.61804 23.0449C7.61305 24.1916 8.51871 25.3994 9.32845 26.6597C10.0198 27.845 10.3079 28.6487 10.8132 30.0769C11.123 30.8659 11.403 31.1014 12.0051 31.1014C12.6612 31.1014 12.9588 30.7008 13.1888 30.0812C13.6664 28.7325 14.0411 27.7032 14.6323 26.7306C15.7923 24.8529 17.2338 23.1843 18.6502 21.5807C19.0336 21.1269 21.5128 18.4827 22.6289 16.3964C22.6289 16.3964 24.0006 14.1046 24.0006 10.9039C24.0006 7.90997 22.6478 5.8335 22.6478 5.8335L18.7529 6.77666L16.3876 12.4098L15.8024 13.1866L15.6854 13.3273L15.5298 13.5034L15.2566 13.7848L14.8663 14.1377L12.76 15.6894L7.49404 18.4387L6.61804 23.0449Z" fill="#34A853"/>
<path id="Vector_2" d="M1.18225 16.0102C2.46747 18.6647 4.94584 20.9981 6.62266 23.0458L15.529 13.5062C15.529 13.5062 14.2743 14.99 11.9982 14.99C9.46291 14.99 7.41475 13.1594 7.41475 10.851C7.41475 9.26811 8.46794 8.18066 8.46794 8.18066L2.42209 9.64551L1.18225 16.0102Z" fill="#FBBC04"/>
<path id="Vector_3" d="M15.6293 0.489746C18.5873 1.35213 21.1191 3.16259 22.6505 5.8323L15.5326 13.5022C15.5326 13.5022 16.5858 12.3951 16.5858 10.822C16.5858 8.45996 14.3861 6.69535 12.0098 6.69535C9.76273 6.69535 8.47217 8.17673 8.47217 8.17673V3.34476L15.6293 0.489746Z" fill="#4285F4"/>
<path id="Vector_4" d="M2.81421 3.87761C4.58093 1.96627 7.68968 -0.00195312 11.9756 -0.00195312C14.0549 -0.00195312 15.6215 0.491671 15.6215 0.491671L8.46499 8.17984H3.39452L2.81421 3.87761Z" fill="#1A73E8"/>
<path id="Vector_5" d="M1.18238 16.0115C1.18238 16.0115 0 13.9178 0 10.8847C0 8.01798 1.23244 5.51213 2.81391 3.87842L8.46872 8.18133L1.18238 16.0115Z" fill="#EA4335"/>
</g>
<defs>
<clipPath id="clip0_535_775">
<rect width="24" height="31.1111" fill="white"/>
</clipPath>
</defs>
</svg>
