<svg width="27" height="23" viewBox="0 0 27 23" fill="none" xmlns="http://www.w3.org/2000/svg">
<g id="Group">
<path id="Vector" d="M15.9167 6.66683V4.25016C15.9167 3.60922 15.6621 2.99453 15.2088 2.54132C14.7556 2.08811 14.1409 1.8335 13.5 1.8335H5.04167C4.40073 1.8335 3.78604 2.08811 3.33283 2.54132C2.87961 2.99453 2.625 3.60922 2.625 4.25016V18.7502C2.625 19.3911 2.87961 20.0058 3.33283 20.459C3.78604 20.9122 4.40073 21.1668 5.04167 21.1668H13.5C14.1409 21.1668 14.7556 20.9122 15.2088 20.459C15.6621 20.0058 15.9167 19.3911 15.9167 18.7502V16.3335" stroke="#267CD1" stroke-width="3.5" stroke-linecap="round" stroke-linejoin="round"/>
<path id="Vector_2" d="M9.875 11.5H24.375M24.375 11.5L20.75 7.875M24.375 11.5L20.75 15.125" stroke="#267CD1" stroke-width="3.5" stroke-linecap="round" stroke-linejoin="round"/>
</g>
</svg>
