<svg width="24" height="24" viewBox="0 0 24 24" fill="none" xmlns="http://www.w3.org/2000/svg">
<g id="mingcute:close-fill">
<g id="Group">
<path id="Vector" fill-rule="evenodd" clip-rule="evenodd" d="M12.0061 13.3465L15.3737 16.7103C15.5524 16.8888 15.7948 16.9891 16.0475 16.9891C16.3002 16.9891 16.5426 16.8888 16.7213 16.7103C16.9 16.5318 17.0004 16.2897 17.0004 16.0373C17.0004 15.7849 16.9 15.5428 16.7213 15.3643L13.3524 12.0005L16.7207 8.63668C16.8091 8.5483 16.8793 8.44338 16.9271 8.32792C16.975 8.21246 16.9996 8.08872 16.9995 7.96376C16.9995 7.8388 16.9748 7.71506 16.9269 7.59963C16.879 7.48419 16.8088 7.37931 16.7204 7.29097C16.6319 7.20263 16.5268 7.13256 16.4112 7.08477C16.2957 7.03697 16.1718 7.01239 16.0467 7.01242C15.9216 7.01245 15.7977 7.03709 15.6821 7.08494C15.5665 7.13279 15.4615 7.2029 15.3731 7.29128L12.0061 10.6551L8.63844 7.29128C8.55062 7.20037 8.44554 7.12783 8.32935 7.07791C8.21315 7.02799 8.08817 7.00169 7.96169 7.00053C7.83521 6.99937 7.70976 7.02339 7.59267 7.07117C7.47559 7.11896 7.3692 7.18956 7.27972 7.27885C7.19023 7.36815 7.11945 7.47435 7.0715 7.59126C7.02355 7.70817 6.99939 7.83345 7.00043 7.95979C7.00147 8.08612 7.02769 8.21099 7.07755 8.3271C7.12742 8.44321 7.19994 8.54823 7.29088 8.63605L10.6598 12.0005L7.29151 15.3649C7.20057 15.4527 7.12806 15.5578 7.07819 15.6739C7.02832 15.79 7.0021 15.9149 7.00106 16.0412C7.00002 16.1675 7.02419 16.2928 7.07214 16.4097C7.12009 16.5266 7.19087 16.6328 7.28035 16.7221C7.36983 16.8114 7.47622 16.882 7.59331 16.9298C7.7104 16.9776 7.83584 17.0016 7.96232 17.0004C8.0888 16.9993 8.21379 16.973 8.32998 16.9231C8.44617 16.8731 8.55125 16.8006 8.63908 16.7097L12.0061 13.3465Z" fill="black"/>
</g>
</g>
</svg>
