<svg
              xmlns="http://www.w3.org/2000/svg"
              width="23"
              height="23"
              viewBox="0 0 30 30"
              fill="none"
            >
              <path
                fillRule="evenodd"
                clipRule="evenodd"
                d="M13.9299 1.07101C13.362 0.692413 12.622 0.693187 12.0549 1.07297C11.4878 1.45276 11.2053 2.13677 11.3391 2.80604L11.5967 4.09381C7.47443 5.45766 4.50012 9.34255 4.50012 13.9221C4.50012 16.7941 5.67213 19.3956 7.55982 21.2688C8.22135 21.9253 9.28981 21.9212 9.94629 21.2597C10.6028 20.5981 10.5987 19.5297 9.93714 18.8732C8.66181 17.6076 7.87512 15.8583 7.87512 13.9221C7.87512 10.9828 9.69323 8.46816 12.2662 7.44139L12.5766 8.99354C12.7105 9.66282 13.2343 10.1856 13.9039 10.318C14.5734 10.4505 15.2569 10.1666 15.6355 9.59865L18.1105 5.88615C18.6274 5.1107 18.4179 4.06298 17.6424 3.54601L13.9299 1.07101ZM23.3779 7.77429C22.7164 7.11781 21.6479 7.1219 20.9915 7.78343C20.335 8.44497 20.3391 9.51342 21.0006 10.1699C22.2759 11.4355 23.0626 13.1848 23.0626 15.121C23.0626 18.0848 21.2141 20.6168 18.6071 21.6271L18.3611 20.3973C18.2272 19.728 17.7034 19.2053 17.0339 19.0728C16.3643 18.9403 15.6809 19.2243 15.3023 19.7922L12.8273 23.5047C12.3103 24.2801 12.5199 25.3278 13.2953 25.8448L17.0078 28.3198C17.5757 28.6984 18.3158 28.6976 18.8829 28.3178C19.45 27.9381 19.7325 27.2541 19.5986 26.5848L19.2758 24.9707C23.4319 23.6264 26.4376 19.7247 26.4376 15.121C26.4376 12.249 25.2656 9.64756 23.3779 7.77429Z"
                fill="black"
              />
            </svg>