<svg width="36" height="29" viewBox="0 0 36 29" fill="none" xmlns="http://www.w3.org/2000/svg">
<path id="Shape" fill-rule="evenodd" clip-rule="evenodd" d="M1.6246 9.71693L1.60308 9.73128C0.601564 10.399 0 11.523 0 12.7267V27C0 27.9941 0.805887 28.8 1.8 28.8H3.6C4.59411 28.8 5.4 27.9941 5.4 27V25.2H30.6V27C30.6 27.9941 31.4059 28.8 32.4 28.8H34.2C35.1941 28.8 36 27.9941 36 27V12.7267C36 11.523 35.3984 10.399 34.3969 9.73128L34.3754 9.71694C35.0314 9.33805 35.6256 8.96586 35.741 8.8C36.0194 8.4 36.1474 7.2 35.741 7.2H32.4L30.2925 2.98505C29.3778 1.15561 27.508 0 25.4626 0H10.5374C8.49201 0 6.62219 1.15561 5.70748 2.98505L3.6 7.2H0.258987C-0.147352 7.2 -0.0194312 8.4 0.258987 8.8C0.374433 8.96586 0.968585 9.33805 1.6246 9.71693ZM7.38353 3.70588L4.30588 9.47647C3.98615 10.076 4.42057 10.8 5.1 10.8H30.9C31.5794 10.8 32.0139 10.076 31.6941 9.47647L28.6165 3.70588C27.9908 2.53277 26.7695 1.8 25.44 1.8H10.56C9.23048 1.8 8.00919 2.53277 7.38353 3.70588ZM1.8 16.3438V14.1669C1.8 13.4723 2.55349 13.0395 3.15348 13.3895L9.16338 16.8953C9.99163 17.3784 9.59071 18.6492 8.63515 18.5696L3.45052 18.1375C2.51759 18.0598 1.8 17.2799 1.8 16.3438ZM34.2 14.1669V16.3438C34.2 17.2799 33.4824 18.0598 32.5495 18.1375L27.3648 18.5696C26.4093 18.6492 26.0084 17.3784 26.8366 16.8953L32.8465 13.3895C33.4465 13.0395 34.2 13.4723 34.2 14.1669Z" fill="#267CD1"/>
</svg>
