<svg
              xmlns="http://www.w3.org/2000/svg"
              width="23"
              height="23"
              viewBox="0 0 28 28"
              fill="none"
            >
              <path
                d="M20.2176 13.9968C20.2176 13.1414 19.5178 12.4416 18.6624 12.4416H13.9968C13.1414 12.4416 12.4416 13.1414 12.4416 13.9968C12.4416 14.8522 13.1414 15.552 13.9968 15.552H18.6624C19.5178 15.552 20.2176 14.8522 20.2176 13.9968ZM13.9968 3.1104C19.9983 3.1104 24.8832 7.99528 24.8832 13.9968C24.8832 19.9983 19.9983 24.8832 13.9968 24.8832C7.99528 24.8832 3.1104 19.9983 3.1104 13.9968C3.1104 7.99528 7.99528 3.1104 13.9968 3.1104ZM13.9968 0C6.2659 0 0 6.2659 0 13.9968C0 21.7277 6.2659 27.9936 13.9968 27.9936C21.7277 27.9936 27.9936 21.7277 27.9936 13.9968C27.9936 6.2659 21.7277 0 13.9968 0ZM15.552 9.3312C15.552 8.47584 14.8522 7.776 13.9968 7.776C13.1414 7.776 12.4416 8.47584 12.4416 9.3312V13.9968C12.4416 14.8522 13.1414 15.552 13.9968 15.552C14.8522 15.552 15.552 14.8522 15.552 13.9968V9.3312ZM13.9968 6.2208C18.2845 6.2208 21.7728 9.70911 21.7728 13.9968C21.7728 18.2845 18.2845 21.7728 13.9968 21.7728C9.70911 21.7728 6.2208 18.2845 6.2208 13.9968C6.2208 9.70911 9.70911 6.2208 13.9968 6.2208ZM13.9968 4.6656C11.522 4.6656 9.14859 5.64871 7.39865 7.39865C5.64871 9.14859 4.6656 11.522 4.6656 13.9968C4.6656 16.4716 5.64871 18.845 7.39865 20.595C9.14859 22.3449 11.522 23.328 13.9968 23.328C16.4716 23.328 18.845 22.3449 20.595 20.595C22.3449 18.845 23.328 16.4716 23.328 13.9968C23.328 11.522 22.3449 9.14859 20.595 7.39865C18.845 5.64871 16.4716 4.6656 13.9968 4.6656Z"
                fill="black"
              />
            </svg>